<?xml version="1.0" encoding="UTF-8"?>
<svg id="Eckig_Schwarz" xmlns="http://www.w3.org/2000/svg" viewBox="0 0 491.287 102.493">
  <defs>
    <style>
      .cls-1 {
        fill: #fff;
      }
    </style>
  </defs>
  <g>
    <polygon class="cls-1" points="187.765 102.493 126.973 13.3 107.249 42.239 148.512 102.493 187.765 102.493"/>
    <polygon class="cls-1" points="139.713 102.493 69.857 0 0 102.493 10.482 102.493 69.094 16.497 69.094 64.939 60.866 39.065 37.74 102.493 139.713 102.493"/>
  </g>
  <g>
    <g>
      <path class="cls-1" d="M222.934,62.68V6.308h27.667c6.503,0,11.407,1.587,14.713,4.758,3.304,3.172,4.957,7.476,4.957,12.914,0,5.385-1.653,9.675-4.957,12.874-3.306,3.198-8.21,4.797-14.713,4.797h-12.874v21.03h-14.793ZM237.727,30.296h10.954c2.505,0,4.371-.546,5.598-1.639,1.225-1.092,1.839-2.651,1.839-4.677s-.614-3.598-1.839-4.718c-1.227-1.12-3.092-1.679-5.598-1.679h-10.954v12.714Z"/>
      <path class="cls-1" d="M276.122,62.68V6.308h40.46v11.275h-26.306v10.795h24.387v11.354h-24.387v11.594h26.306v11.354h-40.46Z"/>
      <path class="cls-1" d="M319.517,62.68l26.386-56.372h11.994l26.547,56.372h-14.793l-6.796-15.512,5.677,4.078h-33.104l5.598-4.078-6.717,15.512h-14.793ZM351.822,21.5l-9.356,22.309-2.239-3.758h23.428l-1.999,3.758-9.435-22.309h-.399Z"/>
      <path class="cls-1" d="M388.563,62.68V6.308h14.793v24.148h.16l21.59-24.148h17.272l-27.347,29.666v-5.838l28.866,32.544h-17.832l-22.549-25.427h-.16v25.427h-14.793Z"/>
      <path class="cls-1" d="M467.299,63.559c-4.531,0-8.835-.547-12.913-1.639s-7.504-2.571-10.275-4.438l4.159-11.435c1.759,1.119,3.678,2.079,5.757,2.879,2.078.8,4.25,1.427,6.516,1.879,2.266.453,4.57.68,6.917.68,3.518,0,5.957-.452,7.316-1.36,1.36-.906,2.039-2.079,2.039-3.518,0-1.28-.453-2.279-1.359-2.999-.907-.72-2.613-1.346-5.118-1.879l-9.755-1.999c-5.17-1.066-9.036-2.919-11.594-5.558-2.559-2.639-3.839-6.09-3.839-10.355,0-3.731,1-6.969,2.999-9.715,1.999-2.745,4.81-4.878,8.436-6.397,3.624-1.519,7.862-2.279,12.714-2.279,3.998,0,7.756.547,11.275,1.639,3.518,1.093,6.398,2.599,8.636,4.518l-4.159,10.715c-2.132-1.546-4.531-2.731-7.196-3.558-2.666-.826-5.624-1.239-8.875-1.239-3.092,0-5.425.467-6.997,1.399-1.573.934-2.359,2.253-2.359,3.958,0,1.173.466,2.172,1.4,2.999.931.827,2.65,1.507,5.157,2.039l9.595,1.919c5.17,1.013,9.049,2.826,11.635,5.438,2.585,2.612,3.878,6.024,3.878,10.235,0,3.625-1,6.796-2.999,9.515-1.999,2.719-4.784,4.825-8.355,6.317-3.572,1.493-7.784,2.239-12.634,2.239Z"/>
    </g>
    <g>
      <path class="cls-1" d="M222.934,102.267l2.806-17.664h7.016c1.954,0,3.378.459,4.272,1.378.893.919,1.206,2.205.939,3.858-.15.97-.509,1.804-1.077,2.506-.568.702-1.295,1.232-2.18,1.592s-1.863.538-2.932.538l.151-.326h.476c.685,0,1.261.171,1.729.514.467.343.818.898,1.052,1.666l1.829,5.938h-2.18l-1.754-5.838c-.217-.752-.584-1.24-1.102-1.466-.518-.225-1.203-.338-2.055-.338h-3.708l-1.203,7.642h-2.079ZM226.467,92.997h5.061c1.269,0,2.276-.284,3.019-.852.743-.567,1.198-1.369,1.366-2.406.184-1.136-.029-1.992-.639-2.568-.61-.576-1.575-.864-2.894-.864h-4.861l-1.052,6.69Z"/>
      <path class="cls-1" d="M240.297,102.267l2.806-17.664h11.275l-.275,1.704h-9.271l-.952,6.138h8.694l-.275,1.729h-8.695l-1.027,6.364h9.271l-.276,1.728h-11.275Z"/>
      <path class="cls-1" d="M253.682,102.267l10.599-17.664h1.804l5.111,17.664h-2.054l-1.402-5.036.826.526h-10.774l1.077-.526-2.956,5.036h-2.23ZM264.857,86.983l-5.538,9.521-.526-.452h9.296l-.526.452-2.63-9.521h-.076Z"/>
      <path class="cls-1" d="M280.994,102.493c-1.921,0-3.474-.393-4.66-1.178s-2.001-1.883-2.442-3.294c-.443-1.411-.523-3.044-.238-4.898.3-1.871.876-3.453,1.728-4.749.852-1.293,1.937-2.283,3.258-2.968,1.319-.685,2.831-1.028,4.534-1.028,1.203,0,2.268.176,3.195.526.926.351,1.716.852,2.368,1.504l-.852,1.704c-.718-.685-1.449-1.166-2.193-1.44-.743-.276-1.616-.414-2.618-.414-1.971,0-3.582.618-4.836,1.854-1.252,1.237-2.054,2.982-2.405,5.236-.235,1.454-.201,2.727.1,3.821.3,1.094.89,1.942,1.766,2.542.876.602,2.033.902,3.47.902.935,0,1.85-.158,2.744-.476.893-.317,1.733-.834,2.518-1.553l.726,1.653c-.785.718-1.721,1.275-2.806,1.667-1.085.391-2.204.588-3.358.588Z"/>
      <path class="cls-1" d="M289.883,102.267l2.806-17.664h2.08l-1.252,7.818h10.648l1.253-7.818h2.054l-2.806,17.664h-2.054l1.277-8.068h-10.648l-1.278,8.068h-2.08Z"/>
      <path class="cls-1" d="M315.614,102.267l2.806-17.664h1.629l8.844,15.108-.476-.075,2.38-15.034h1.93l-2.806,17.664h-1.604l-8.844-15.108.45.075-2.38,15.034h-1.93Z"/>
      <path class="cls-1" d="M334.57,102.267l2.806-17.664h11.275l-.276,1.704h-9.27l-.952,6.138h8.694l-.276,1.729h-8.694l-1.028,6.364h9.271l-.276,1.728h-11.275Z"/>
      <path class="cls-1" d="M354.267,102.267l-3.358-17.664h2.08l2.856,15.91h-.876l8.192-15.91h1.654l2.832,15.91h-.802l8.068-15.91h2.154l-9.02,17.664h-1.854l-2.782-15.308h.502l-7.842,15.308h-1.804Z"/>
      <path class="cls-1" d="M383.856,102.267l2.806-17.664h2.08l-1.252,7.818h10.648l1.253-7.818h2.054l-2.806,17.664h-2.054l1.277-8.068h-10.648l-1.278,8.068h-2.08Z"/>
      <path class="cls-1" d="M403.3,102.267l2.806-17.664h11.275l-.276,1.704h-9.27l-.952,6.138h8.694l-.276,1.729h-8.694l-1.028,6.364h9.271l-.276,1.728h-11.275Z"/>
      <path class="cls-1" d="M417.898,102.267l2.806-17.664h2.08l-2.806,17.664h-2.08Z"/>
      <path class="cls-1" d="M432.73,102.493c-2.021,0-3.641-.384-4.86-1.152-1.22-.769-2.046-1.854-2.481-3.258-.434-1.402-.5-3.049-.2-4.936.301-1.871.885-3.458,1.754-4.76.869-1.303,1.987-2.297,3.358-2.982,1.369-.685,2.94-1.028,4.71-1.028,1.287,0,2.377.168,3.27.502s1.657.81,2.292,1.428l-.876,1.678c-.685-.617-1.378-1.064-2.08-1.34s-1.604-.414-2.706-.414c-2.088,0-3.784.627-5.086,1.88-1.303,1.252-2.13,3.023-2.48,5.312-.368,2.254-.113,4.025.764,5.312.876,1.286,2.468,1.929,4.772,1.929.852,0,1.663-.083,2.431-.25.767-.167,1.536-.409,2.304-.726l-.676,1.178.977-6.214h-4.51l.251-1.629h6.314l-1.303,8.143c-.484.267-1.064.502-1.741.702-.677.2-1.378.355-2.105.464-.726.108-1.424.162-2.092.162Z"/>
      <path class="cls-1" d="M442.759,102.267l2.806-17.664h2.08l-1.252,7.818h10.648l1.253-7.818h2.054l-2.806,17.664h-2.054l1.277-8.068h-10.648l-1.278,8.068h-2.08Z"/>
      <path class="cls-1" d="M466.272,102.267l2.505-15.91h-6.214l.276-1.754h14.533l-.301,1.754h-6.214l-2.506,15.91h-2.079Z"/>
      <path class="cls-1" d="M482.968,102.493c-1.402,0-2.651-.171-3.745-.514-1.094-.341-2.01-.781-2.744-1.316l.852-1.653c.802.517,1.649.923,2.542,1.215.894.293,1.967.438,3.22.438,1.454,0,2.581-.27,3.382-.814.802-.543,1.278-1.257,1.428-2.142.135-.819-.017-1.474-.45-1.966-.435-.493-1.245-.814-2.43-.965l-2.356-.376c-1.637-.234-2.811-.789-3.52-1.666-.711-.876-.956-1.992-.74-3.344.151-1.002.539-1.875,1.166-2.618s1.457-1.328,2.492-1.754c1.037-.426,2.222-.64,3.558-.64,1.203,0,2.293.171,3.27.514.978.343,1.775.79,2.393,1.34l-.827,1.654c-.651-.551-1.386-.969-2.204-1.252s-1.763-.426-2.832-.426c-1.402,0-2.539.293-3.408.876-.869.585-1.386,1.37-1.553,2.356-.135.869.016,1.57.45,2.104.435.535,1.253.885,2.456,1.052l2.356.351c1.653.234,2.826.752,3.52,1.554.693.801.931,1.895.714,3.282-.135.885-.506,1.687-1.116,2.405-.609.718-1.411,1.282-2.405,1.692-.994.409-2.151.614-3.471.614Z"/>
    </g>
  </g>
</svg>